<?xml version="1.0" standalone="no"?>
<!DOCTYPE svg PUBLIC "-//W3C//DTD SVG 20010904//EN"
 "http://www.w3.org/TR/2001/REC-SVG-20010904/DTD/svg10.dtd">
<svg version="1.0" xmlns="http://www.w3.org/2000/svg"
 width="500.000000pt" height="500.000000pt" viewBox="0 0 500.000000 500.000000"
 preserveAspectRatio="xMidYMid meet">

<g transform="translate(0.000000,500.000000) scale(0.100000,-0.100000)"
fill="#000000" stroke="none">
<path d="M0 2500 l0 -2500 2500 0 2500 0 0 2500 0 2500 -2500 0 -2500 0 0
-2500z m4120 974 l383 -535 -34 -33 c-19 -18 -443 -433 -944 -921 -500 -489
-936 -913 -968 -944 l-57 -55 -93 92 -93 93 143 537 c78 295 143 538 143 539
0 0 21 11 48 24 64 31 140 111 180 189 30 60 172 521 172 560 0 37 -23 81 -51
95 -36 19 -90 19 -115 0 -28 -21 -29 -20 -29 34 0 39 -6 55 -24 75 -40 43
-119 54 -158 23 -10 -7 -13 -1 -13 28 0 42 -39 89 -84 101 -42 10 -93 -4 -116
-33 -16 -20 -20 -22 -20 -8 0 63 -63 115 -138 115 -74 0 -85 -18 -157 -264
-35 -120 -66 -221 -69 -224 -3 -3 -42 11 -86 31 l-81 37 -29 -47 c-56 -88 -33
-162 85 -275 89 -84 125 -148 125 -222 0 -35 -34 -155 -120 -424 -66 -207
-123 -378 -126 -381 -2 -3 -69 58 -147 135 -78 77 -333 326 -567 554 -234 227
-460 448 -504 490 l-78 77 382 537 382 536 1237 0 1238 0 383 -536z"/>
<path d="M1457 3826 c-56 -15 -67 -24 -47 -36 157 -91 196 -118 204 -141 7
-21 0 -41 -48 -125 -32 -54 -65 -105 -74 -112 -24 -18 -45 -10 -153 53 -52 30
-97 55 -101 55 -11 0 3 -71 22 -116 26 -61 84 -120 148 -151 76 -37 194 -39
259 -5 23 12 48 22 55 22 7 0 74 -36 148 -80 87 -52 136 -75 139 -67 2 6 21
62 41 123 l38 111 -118 68 -117 68 -7 59 c-7 75 -33 134 -81 186 -71 80 -204
118 -308 88z"/>
<path d="M2976 2708 c-14 -57 -29 -113 -32 -124 -5 -18 4 -27 48 -52 53 -31
54 -32 65 -95 14 -83 38 -132 89 -183 146 -147 411 -91 484 102 30 81 25 191
-12 255 -33 56 -81 101 -138 131 -63 32 -185 33 -251 1 -25 -13 -48 -23 -51
-23 -4 0 -41 20 -82 45 -42 25 -80 45 -85 45 -4 0 -20 -46 -35 -102z m540
-149 l52 -92 -54 -91 -53 -91 -108 0 -108 0 -53 92 -53 93 53 90 53 90 110 0
110 0 51 -91z"/>
</g>
</svg>
